<svg width="20" height="20" viewBox="0 0 20 20" fill="none" xmlns="http://www.w3.org/2000/svg">
<g opacity="0.8">
<path d="M5.83333 3.74935V16.2493C5.83333 16.9397 6.39298 17.4993 7.08333 17.4993H12.9261C13.6165 17.4993 14.1761 16.9397 14.1761 16.2493V3.74935C14.1761 3.05899 13.6165 2.49935 12.9261 2.49935H7.08333C6.39298 2.49935 5.83333 3.05899 5.83333 3.74935ZM5 3.74935C5 2.59876 5.93274 1.66602 7.08333 1.66602H12.9261C14.0767 1.66602 15.0095 2.59876 15.0095 3.74935V16.2493C15.0095 17.3999 14.0767 18.3327 12.9261 18.3327H7.08333C5.93274 18.3327 5 17.3999 5 16.2493V3.74935Z" fill="white"/>
<path d="M9.16602 15.8333C9.16602 15.3733 9.53935 15 9.99935 15C10.4593 15 10.8327 15.3733 10.8327 15.8333C10.8327 16.2933 10.4593 16.6667 9.99935 16.6667C9.53935 16.6667 9.16602 16.2933 9.16602 15.8333Z" fill="white"/>
</g>
</svg>
