<svg width="18" height="12" viewBox="0 0 18 12" fill="none" xmlns="http://www.w3.org/2000/svg">
<path d="M2.20497 10.8829C2.36953 10.9626 2.55422 11.0074 2.74935 11.0074H15.2494C15.4445 11.0074 15.6292 10.9626 15.7937 10.8829L10.8699 6.24869L9.26423 7.57099C9.11037 7.69769 8.88833 7.69769 8.73447 7.57099L7.12883 6.24869L2.20497 10.8829ZM1.6186 10.2909C1.62245 10.2869 1.62641 10.2831 1.63045 10.2793L6.48035 5.71465L1.65114 1.73765C1.64061 1.72898 1.63061 1.7199 1.62116 1.71045C1.54307 1.87363 1.49935 2.05638 1.49935 2.24935V9.75736C1.49935 9.94821 1.54212 10.1291 1.6186 10.2909ZM16.3801 10.2909C16.4566 10.1291 16.4994 9.94821 16.4994 9.75736V2.24935C16.4994 2.05638 16.4556 1.87363 16.3775 1.71045C16.3681 1.7199 16.3581 1.72898 16.3476 1.73765L11.5184 5.71465L16.3683 10.2793C16.3723 10.2831 16.3762 10.2869 16.3801 10.2909ZM15.7864 1.12026C15.6237 1.04274 15.4416 0.999349 15.2494 0.999349H2.74935C2.55712 0.999349 2.37503 1.04274 2.21233 1.12026L8.99935 6.70958L15.7864 1.12026ZM2.74935 0.166016H15.2494C16.3999 0.166016 17.3327 1.09876 17.3327 2.24935V9.75736C17.3327 10.908 16.3999 11.8407 15.2494 11.8407H2.74935C1.59876 11.8407 0.666016 10.908 0.666016 9.75736V2.24935C0.666016 1.09876 1.59876 0.166016 2.74935 0.166016Z" fill="white"/>
</svg>
