<svg width="20" height="20" viewBox="0 0 20 20" fill="none" xmlns="http://www.w3.org/2000/svg">
<path d="M10.3932 17.932L10.3863 17.9371L10.3798 17.9427C10.2742 18.0331 10.1397 18.0827 10.0007 18.0827C9.86161 18.0827 9.72714 18.0331 9.62148 17.9427L9.62135 17.9426C9.49083 17.8295 7.97836 16.5188 6.4977 14.6741C5.00233 12.8111 3.58452 10.4581 3.58398 8.26726C3.60122 6.57706 4.28467 4.96189 5.48591 3.77267C6.68744 2.58316 8.30989 1.91593 10.0006 1.91602H10.0007C11.6914 1.91593 13.3139 2.58316 14.5154 3.77267C15.7166 4.9619 16.4001 6.57706 16.4173 8.26727C16.4168 10.4586 15.0088 12.8119 13.519 14.6744C12.0355 16.5291 10.5193 17.8383 10.3932 17.932ZM9.82826 16.5554L10.0007 16.7195L10.173 16.5554C10.8735 15.8885 12.1357 14.6204 13.2245 13.1268C14.306 11.6434 15.2507 9.89199 15.2507 8.26602C15.2506 6.87363 14.6975 5.53827 13.713 4.5537C12.7284 3.56914 11.393 3.01602 10.0007 3.01602C8.60826 3.01602 7.27291 3.56914 6.28834 4.5537C5.30377 5.53827 4.75065 6.87363 4.75065 8.26602C4.75065 9.90434 5.69512 11.6556 6.77691 13.1364C7.86588 14.627 9.12827 15.8889 9.82826 16.5554Z" fill="white" stroke="#333333" stroke-width="0.5"/>
<path d="M8.51913 5.69941C8.95766 5.4064 9.47324 5.25 10.0007 5.25C10.7079 5.25 11.3862 5.53095 11.8863 6.03105C12.3864 6.53115 12.6673 7.20942 12.6673 7.91667C12.6673 8.44408 12.5109 8.95966 12.2179 9.39819C11.9249 9.83672 11.5084 10.1785 11.0211 10.3803C10.5339 10.5822 9.99769 10.635 9.48041 10.5321C8.96313 10.4292 8.48798 10.1752 8.11503 9.80228C7.74209 9.42934 7.48812 8.95419 7.38522 8.43691C7.28233 7.91963 7.33514 7.38345 7.53697 6.89618C7.73881 6.40891 8.0806 5.99243 8.51913 5.69941ZM9.1673 9.16387C9.41397 9.32869 9.70398 9.41667 10.0007 9.41667C10.3985 9.41667 10.78 9.25863 11.0613 8.97733C11.3426 8.69602 11.5007 8.31449 11.5007 7.91667C11.5007 7.61999 11.4127 7.32999 11.2479 7.08331C11.083 6.83664 10.8488 6.64438 10.5747 6.53085C10.3006 6.41732 9.99899 6.38761 9.70802 6.44549C9.41705 6.50337 9.14977 6.64623 8.93999 6.85601C8.73021 7.06579 8.58735 7.33306 8.52947 7.62403C8.4716 7.915 8.5013 8.2166 8.61483 8.49069C8.72837 8.76478 8.92062 8.99905 9.1673 9.16387Z" fill="white" stroke="#333333" stroke-width="0.5"/>
</svg>
